<?xml version="1.0" encoding="UTF-8" standalone="no"?><!DOCTYPE svg PUBLIC "-//W3C//DTD SVG 1.1//EN" "http://www.w3.org/Graphics/SVG/1.1/DTD/svg11.dtd"><svg width="100%" height="100%" viewBox="0 0 270 115" version="1.1" xmlns="http://www.w3.org/2000/svg" xmlns:xlink="http://www.w3.org/1999/xlink" xml:space="preserve" xmlns:serif="http://www.serif.com/" style="fill-rule:evenodd;clip-rule:evenodd;stroke-linejoin:round;stroke-miterlimit:2;"><rect id="rectangle" x="201.741" y="100.452" width="40.777" height="14.455" style="fill:#c10b25;fill-rule:nonzero;"/><path id="passion" d="M138.251,111.175C138.635,112.843 139.996,113.811 141.921,113.811C144.05,113.811 145.591,112.586 145.591,110.831C145.591,109.204 144.527,108.335 142.66,107.834L141.235,107.449C139.066,106.825 137.862,105.84 137.862,103.927C137.862,101.817 139.729,100.429 141.892,100.429C143.759,100.429 145.341,101.397 145.888,102.925L144.742,103.467C144.341,102.26 143.195,101.618 141.892,101.618C140.368,101.618 139.141,102.505 139.141,103.892C139.141,105.181 139.984,105.805 141.59,106.266L142.991,106.645C145.58,107.327 146.865,108.714 146.865,110.808C146.865,113.204 144.696,114.994 141.91,114.994C140.706,114.994 139.665,114.691 138.757,114.09C137.856,113.484 137.292,112.679 137.071,111.694L138.251,111.175ZM123.321,111.175C123.705,112.843 125.066,113.811 126.991,113.811C129.12,113.811 130.661,112.586 130.661,110.831C130.661,109.204 129.597,108.335 127.73,107.834L126.305,107.449C124.135,106.825 122.931,105.84 122.931,103.927C122.931,101.817 124.798,100.429 126.962,100.429C128.829,100.429 130.411,101.397 130.958,102.925L129.812,103.467C129.411,102.26 128.265,101.618 126.962,101.618C125.438,101.618 124.211,102.505 124.211,103.892C124.211,105.181 125.054,105.805 126.66,106.266L128.061,106.645C130.649,107.327 131.935,108.714 131.935,110.808C131.935,113.204 129.765,114.994 126.979,114.994C125.776,114.994 124.734,114.691 123.827,114.09C122.926,113.484 122.361,112.679 122.14,111.694L123.321,111.175ZM168.455,100.452C172.829,100.394 175.801,103.852 175.737,107.712C175.795,111.572 172.829,115.035 168.455,114.971C164.081,115.029 161.109,111.572 161.173,107.712C161.109,103.852 164.081,100.394 168.455,100.452ZM183.606,103.006L183.606,114.755L182.321,114.755L182.321,100.493L183.083,100.493L192.836,112.423L192.836,100.674L194.122,100.674L194.122,114.936L193.337,114.936L183.606,103.006ZM96.125,100.674C97.59,100.674 98.753,101.059 99.655,101.84C100.556,102.604 101.022,103.671 101.022,105.041C101.022,107.776 98.998,109.426 96.125,109.426L92.652,109.426L92.652,114.755L91.367,114.755L91.367,100.674L96.125,100.674ZM154.589,100.674L154.589,114.755L153.304,114.755L153.304,100.674L154.589,100.674ZM110.799,100.493L111.561,100.493L117.743,114.755L116.359,114.755L114.893,111.414L107.449,111.414L106.006,114.755L104.622,114.755L110.799,100.493ZM168.455,101.683C164.802,101.624 162.453,104.58 162.493,107.717C162.453,110.895 164.802,113.811 168.455,113.752C172.107,113.834 174.457,110.854 174.416,107.717C174.457,104.58 172.107,101.618 168.455,101.683ZM114.411,110.248L111.183,102.744L107.955,110.248L114.411,110.248ZM95.845,101.84L92.652,101.84L92.652,108.26L95.845,108.26C98.236,108.26 99.719,107.152 99.719,105.041C99.719,102.93 98.253,101.84 95.845,101.84Z" style="fill:#010202;fill-rule:nonzero;"/><path id="lanef" d="M182.286,29.177C173.236,29.177 165.692,32.302 160.399,37.608C155.107,42.914 152.053,50.419 152.047,59.252C152.047,68.086 155.107,75.59 160.399,80.896C165.692,86.202 173.236,89.321 182.286,89.327C187.898,89.327 193.383,88.214 198.117,85.899C202.695,83.66 206.563,80.295 209.226,75.724L194.732,68.686C191.789,72.505 187.369,74.494 182.524,74.488C179.18,74.488 176.475,73.596 174.422,71.975C172.363,70.354 170.979,68.016 170.188,65.211L170.002,64.546L211.658,64.546C211.861,63.159 212.053,60.704 212.053,59.141C212.053,50.424 209.139,42.944 203.98,37.638C198.815,32.331 191.394,29.177 182.286,29.177ZM23.172,59.136C23.172,67.444 25.83,74.879 30.512,80.225C35.2,85.572 41.9,88.849 50.101,88.855C56.504,88.855 62.617,86.872 66.997,82.26L67.898,81.31L67.898,87.438L85.9,87.438L85.9,31.195L67.898,31.195L67.898,37.084L66.997,36.133C62.629,31.521 56.516,29.655 50.101,29.655C41.9,29.661 35.194,32.88 30.512,38.168C25.824,43.451 23.172,50.827 23.172,59.136ZM119.477,45.917C122.722,45.911 125.287,46.973 127.009,48.891C128.73,50.809 129.585,53.526 129.585,56.757L129.585,87.426L147.708,87.426L147.708,53.917C147.708,46.669 145.44,40.611 141.473,36.366C137.507,32.122 131.836,29.655 124.921,29.655C118.29,29.661 112.904,31.859 109.473,36.104L108.542,37.253L108.542,31.195L91.373,31.195L91.373,87.432L109.49,87.432L109.49,56.762C109.49,53.532 110.31,50.815 112.003,48.897C113.695,46.978 116.237,45.911 119.477,45.917ZM247.86,0L247.701,0C240.884,0 235.05,2.157 230.915,6.012C226.786,9.866 224.325,15.434 224.325,22.367L224.325,31.195L215.333,31.195L215.333,46.395L224.325,46.395L224.325,87.432L242.443,87.432L242.443,46.395L256.047,46.395L256.047,31.195L242.449,31.195L242.449,21.895C242.449,20.209 242.85,18.699 243.728,17.58C244.606,16.454 245.979,15.784 247.706,15.796C249.376,15.79 250.766,16.46 251.685,17.568C252.511,18.559 252.953,19.889 253.04,21.37L270.006,21.37C269.948,14.746 267.743,9.452 263.916,5.79C260.067,2.099 254.564,0.032 247.86,0ZM18.118,1.895L0,1.895L0,87.426L18.118,87.426L18.118,1.895ZM45.035,49.282C47.321,46.751 50.677,45.206 54.829,45.212C58.982,45.206 62.338,46.757 64.624,49.282C66.916,51.806 68.131,55.293 68.131,59.136C68.131,63.095 66.916,66.611 64.624,69.141C62.338,71.672 58.976,73.188 54.829,73.182C50.682,73.188 47.327,71.672 45.035,69.141C42.743,66.611 41.528,63.1 41.528,59.136C41.528,55.287 42.743,51.806 45.035,49.282ZM170.089,53.252L170.31,52.564C171.165,49.935 172.584,47.76 174.591,46.244C176.597,44.728 179.18,43.9 182.286,43.9C185.444,43.9 187.974,44.699 189.888,46.209C191.801,47.713 193.063,49.905 193.796,52.593L193.976,53.258L170.089,53.258L170.089,53.252Z" style="fill:#010202;fill-rule:nonzero;"/></svg>